<?xml version="1.0" encoding="utf-8"?>
<!DOCTYPE svg PUBLIC "-//W3C//DTD SVG 1.1//EN" "http://www.w3.org/Graphics/SVG/1.1/DTD/svg11.dtd">
<svg version="1.1" fill="#999" xmlns="http://www.w3.org/2000/svg" xmlns:xlink="http://www.w3.org/1999/xlink" x="0px" y="0px" viewBox="0 0 1000 1000" enable-background="new 0 0 1000 1000" xml:space="preserve">
<g><g transform="translate(0.000000,511.000000) scale(0.100000,-0.100000)"><path d="M3186,3481.3c-32.1-4-140.2-18-240.4-30.1c-334.6-42.1-757.3-148.3-915.6-230.4c-192.3-100.2-484.8-388.7-653.1-647.1C1132.4,2201.1,872,1610.1,631.5,894.8C381.1,137.5,212.8-720,118.7-1725.7c-48.1-520.9-10-719.2,194.3-1009.7c162.3-232.4,390.7-390.7,699.2-484.8c118.2-36.1,196.3-46.1,370.6-46.1c194.3,0,242.4,8,394.7,62.1c446.8,156.3,687.2,384.7,1326.3,1262.2c250.4,342.6,488.8,655.1,532.9,695.2c242.4,218.4,761.3,352.6,1362.4,352.6c631.1,0,1170-148.2,1396.4-386.7c44.1-46.1,276.5-354.6,516.9-685.2c619.1-849.5,865.5-1081.9,1308.3-1238.1c156.3-56.1,198.3-62.1,404.7-60.1c192.3,0,258.5,10,390.7,52.1c376.7,124.2,667.1,380.7,801.4,713.3c88.2,216.4,100.2,354.6,62.1,777.3C9789.4-738,9615.1,149.5,9364.7,898.8c-242.4,721.2-496.9,1296.2-741.3,1672.9c-170.3,258.4-460.8,548.9-653.1,647.1c-262.5,136.2-899.5,260.4-1348.3,262.5c-587,2-865.5-152.3-1031.8-575L5516,2716l-92.1-12c-116.2-16-733.3-16-849.5,0l-88.2,12l-78.1,190.3c-124.2,306.5-290.5,454.8-605,536.9C3688.8,3473.3,3302.2,3497.3,3186,3481.3z M3630.7,2886.3c70.1-16,142.2-42.1,164.3-62.1c20-18,70.1-116.2,112.2-214.4c124.2-298.5,234.4-414.7,446.8-462.8c158.3-36.1,1132-36.1,1290.2,0c212.4,48.1,322.5,164.3,446.8,464.8c42.1,100.2,98.2,198.3,124.2,218.4c150.3,120.2,699.2,96.2,1298.2-58.1c262.4-66.1,406.7-188.3,629.1-530.9C8431,1798.4,8835.7,772.6,9016.1,21.3c182.3-761.3,348.6-2027.5,294.5-2227.9c-54.1-190.3-228.4-372.6-424.7-440.8c-330.6-116.2-653.1-4-973.7,336.6c-76.2,80.1-332.6,410.7-569,735.3c-236.4,324.6-466.8,631.1-510.9,679.2c-236.4,256.4-647.1,446.8-1172,536.9c-268.5,48.1-1053.8,48.1-1322.3,0c-524.9-90.2-935.6-280.5-1172-536.9c-44.1-48.1-274.5-354.6-510.9-679.2c-236.4-324.6-492.9-655.1-569-735.3c-320.6-340.6-643.1-452.8-973.7-336.6c-196.3,68.1-370.6,250.4-424.7,440.8C633.6-2006.2,799.8-740,982.2,21.3c180.3,751.3,585,1777.1,873.5,2219.9c282.5,432.7,398.7,502.9,1009.7,611.1C3238.1,2918.3,3436.4,2926.3,3630.7,2886.3z"/><path d="M6794.2,2060.8c-170.3-60.1-292.5-240.4-292.5-430.7c0-142.3,52.1-252.4,160.3-346.6c146.3-124.2,318.6-148.3,490.8-66.1c56.1,26.1,120.2,68.1,144.3,94.2c68.1,74.1,126.2,220.4,126.2,318.5c0,104.2-70.1,268.5-142.2,334.6C7156.8,2078.9,6954.5,2118.9,6794.2,2060.8z M7020.6,1788.4c74.1-26,102.2-70.1,102.2-158.3c0-90.2-30-134.2-108.2-160.3c-192.3-62.1-316.5,196.3-146.3,302.5C6944.5,1816.4,6938.5,1816.4,7020.6,1788.4z"/><path d="M2508.8,1908.6c-52.1-40.1-52.1-46.1-58.1-314.5l-6-274.5l-272.5-6c-364.6-6-346.6,16-354.6-424.7c-6-332.6-6-336.6,42.1-392.7c50.1-58.1,50.1-58.1,322.6-64.1l272.5-8V157.5c0-362.6-16-350.6,440.8-350.6c448.8,0,428.7-16,436.7,346.6l8,270.5l270.5,8c362.6,8,346.6-14,346.6,444.8c0,452.8,16,432.7-350.6,432.7h-270.5V1560c0,138.2-10,270.5-22,296.5c-36.1,80.1-98.2,94.2-436.7,94.2C2588.9,1950.6,2554.9,1946.6,2508.8,1908.6z M3035.7,1389.7c0-252.4,2-264.5,50.1-310.5c46.1-48.1,58.1-50.1,310.5-50.1h260.4V878.8V728.5h-260.4c-252.4,0-264.5-2-310.5-50.1c-48.1-46.1-50.1-58.1-50.1-310.5V107.5h-150.3h-150.3v268.5c0,266.5,0,270.5-52.1,310.5c-48.1,38.1-80.1,42.1-310.5,42.1h-258.4v150.3V1029h264.5c362.6,0,356.6-6,356.6,354.6v266.5h150.3h150.3V1389.7z"/><path d="M5980.8,1297.5c-286.5-124.2-360.6-502.9-142.2-735.3c86.2-96.2,198.3-142.2,332.6-142.2c494.9,0,633.1,691.2,176.3,883.5C6261.3,1337.6,6069,1335.6,5980.8,1297.5z M6247.3,1027c100.2-46.1,124.2-190.3,44.1-268.5c-104.2-106.2-290.5-32.1-290.5,116.2C6000.8,1007,6123,1083.1,6247.3,1027z"/><path d="M7501.4,1283.5c-216.4-114.2-308.5-390.7-202.4-605c140.2-288.5,530.9-350.6,747.3-116.2c158.3,168.3,170.3,410.7,32.1,591c-90.2,118.2-210.4,176.3-364.6,176.3C7623.6,1329.6,7565.5,1317.5,7501.4,1283.5z M7789.9,1025c160.3-84.1,104.2-316.5-76.1-316.5c-178.3,0-236.4,226.4-80.1,316.5C7685.7,1055.1,7735.8,1055.1,7789.9,1025z"/><path d="M6814.2,560.2c-184.3-68.1-294.5-210.4-308.5-392.7c-20-282.5,178.3-500.9,456.8-500.9c360.6,0,575,390.7,384.7,701.2C7239,542.2,6998.6,628.4,6814.2,560.2z M7076.7,243.7c54.1-50.1,62.1-164.3,16-230.4c-70.1-100.2-246.4-70.1-292.5,50.1C6736.1,229.7,6946.5,365.9,7076.7,243.7z"/></g></g>
</svg>